<svg xmlns="http://www.w3.org/2000/svg" viewBox="0 0 16 16">
    <path fill="currentColor" fill-rule="evenodd"
          d="M9 3.2c0-1.12 0-1.68.218-2.11c.192-.376.498-.682.874-.874c.428-.218.988-.218 2.11-.218h.6c1.12 0 1.68 0 2.11.218c.376.192.682.498.874.874c.218.428.218.988.218 2.11v.6c0 1.12 0 1.68-.218 2.11a2 2 0 0 1-.874.874c-.428.218-.988.218-2.11.218h-.6c-1.12 0-1.68 0-2.11-.218a2 2 0 0 1-.874-.874C9 5.482 9 4.922 9 3.8zM12.2 1h.6c.577 0 .949 0 1.23.024c.272.022.372.06.422.085c.188.096.341.249.437.437c.025.05.063.15.085.422c.023.283.024.656.024 1.23v.6c0 .577 0 .949-.024 1.23c-.022.272-.06.372-.085.422a1 1 0 0 1-.437.437c-.05.025-.15.063-.422.085c-.283.023-.656.024-1.23.024h-.6c-.577 0-.949 0-1.23-.024c-.272-.022-.372-.06-.422-.085a1 1 0 0 1-.437-.437c-.025-.05-.063-.15-.085-.422a17 17 0 0 1-.024-1.23v-.6c0-.577 0-.949.024-1.23c.022-.272.06-.372.085-.422c.096-.188.249-.341.437-.437c.05-.025.15-.063.422-.085C11.253 1 11.626 1 12.2 1M.218 4.09C0 4.518 0 5.078 0 6.2v6.6c0 1.12 0 1.68.218 2.11c.192.376.498.682.874.874c.428.218.988.218 2.11.218h6.6c1.12 0 1.68 0 2.11-.218c.376-.192.682-.498.874-.874c.218-.428.218-.988.218-2.11v-.6c0-1.12 0-1.68-.218-2.11a2 2 0 0 0-.874-.874c-.428-.218-.988-.218-2.11-.218h-2.8v-2.8c0-1.12 0-1.68-.218-2.11a2 2 0 0 0-.874-.874c-.428-.218-.988-.218-2.11-.218h-.6c-1.12 0-1.68 0-2.11.218a2 2 0 0 0-.874.874zm5.78 2.11V9h-5V6.2c0-.577 0-.949.024-1.23c.022-.272.06-.372.085-.422c.096-.188.249-.341.437-.437c.05-.025.15-.063.422-.085c.283-.023.656-.024 1.23-.024h.6c.577 0 .949 0 1.23.024c.272.022.372.06.422.085c.188.096.341.249.437.437c.025.05.063.15.085.422c.023.283.024.656.024 1.23zm-5 3.8h5v5h-2.8c-.577 0-.949 0-1.23-.024c-.272-.022-.372-.06-.422-.085a1 1 0 0 1-.437-.437c-.025-.05-.063-.15-.085-.422C1 13.749 1 13.376 1 12.802v-2.8zm6 0h2.8c.577 0 .949 0 1.23.024c.272.022.372.06.422.085c.188.096.341.249.437.437c.025.05.063.15.085.422c.023.283.024.656.024 1.23v.6c0 .577 0 .949-.024 1.23c-.022.272-.06.372-.085.422a1 1 0 0 1-.437.437c-.05.025-.15.063-.422.085c-.283.023-.656.024-1.23.024h-2.8v-5z"
          clip-rule="evenodd"/>
</svg>